<?xml version="1.0" encoding="utf-8"?>
<!-- Generator: Adobe Illustrator 16.0.3, SVG Export Plug-In . SVG Version: 6.00 Build 0)  -->
<!DOCTYPE svg PUBLIC "-//W3C//DTD SVG 1.1//EN" "http://www.w3.org/Graphics/SVG/1.1/DTD/svg11.dtd">
<svg version="1.1" id="Layer_1" xmlns="http://www.w3.org/2000/svg" xmlns:xlink="http://www.w3.org/1999/xlink" x="0px" y="0px"
	 width="230px" height="25.5px" viewBox="0 0 230 25.5" enable-background="new 0 0 230 25.5" xml:space="preserve">
<g>
	<defs>
		<rect id="SVGID_1_" width="230" height="25.5"/>
	</defs>
	<clipPath id="SVGID_2_">
		<use xlink:href="#SVGID_1_"  overflow="visible"/>
	</clipPath>
	<path clip-path="url(#SVGID_2_)" fill="#E51E26" d="M25.499,12.749c0,7.042-5.708,12.751-12.75,12.751
		C5.708,25.5,0,19.791,0,12.749C0,5.708,5.708,0,12.749,0C19.791,0,25.499,5.708,25.499,12.749"/>
	<path clip-path="url(#SVGID_2_)" fill="#FFFFFF" d="M11.941,9.209c0,0,1.474-1.905,1.613-2.139
		c0.141-0.234,0.197-0.422-0.202-0.671c-0.399-0.249-1.734-1.032-1.999-1.234c-0.265-0.203-0.218-0.952,0.563-1.108
		c0.78-0.155,7.558-0.718,10.198-0.438c2.64,0.282,2.28,1.032,2.295,1.64c0.015,0.609-1.062,1.484-2.499,2.779
		c0,0-2.373,2.203-4.106,3.717c-1.735,1.515-7.278,6.185-8.356,7.028c-1.078,0.843-5.255,3.952-5.527,4.155
		c-0.271,0.204-1.029,0.813-1.441,0.388c-0.413-0.425,0-0.899,0.209-1.189C2.897,21.848,11.316,9.959,11.941,9.209"/>
	<path clip-path="url(#SVGID_2_)" fill="#E51E26" d="M24.247,4.341c0.108,0.26,0.205,0.754,0.163,0.917
		c-0.153,0.589-1.062,1.483-2.499,2.779c0,0-2.373,2.203-4.107,3.717c-1.734,1.515-7.277,6.185-8.355,7.028
		c-1.078,0.843-5.255,3.951-5.527,4.155c-0.207,0.155-1.127,0.288-1.532,0.278c0.131,0.186,0.364,0.393,0.605,0.625
		c0.425,0.413,1.17-0.184,1.442-0.388c0.271-0.203,4.449-3.313,5.527-4.155c1.078-0.845,6.622-5.515,8.355-7.028
		c1.733-1.514,4.107-3.717,4.107-3.717c1.436-1.296,2.222-2.002,2.374-2.592C24.87,5.691,24.965,4.838,24.247,4.341"/>
	<path clip-path="url(#SVGID_2_)" fill-rule="evenodd" clip-rule="evenodd" fill="#3F3B3C" d="M44.345,2.151v15.869
		c0,3.5-3.077,6.158-7.144,6.158c-4.063,0-7.143-2.658-7.143-6.158V5.881c0-2.052,1.654-3.73,3.718-3.73h0.26v15.842
		c0,1.881,1.686,3.036,3.311,3.036c1.567,0,3.253-1.07,3.253-3.036V5.68c0-1.938,1.596-3.528,3.541-3.528H44.345z M52.183,7.759
		c5.43,0,6.302,3.037,6.302,4.857v11.331h-0.173c-2.004,0-3.718-1.677-3.718-3.673v-7.6c0-1.069-0.436-2.344-2.555-2.344
		c-0.986,0-1.569,0.117-2.207,0.349v13.268H45.94V8.945C47.598,8.22,50.267,7.759,52.183,7.759 M62.129,2.151
		c1.161,0,2.089,0.867,2.089,1.937c0,1.041-0.928,1.879-2.089,1.879s-2.12-0.838-2.12-1.879C60.009,3.018,60.968,2.151,62.129,2.151
		 M64.043,7.759L64.043,7.759v12.547c0,1.992-1.625,3.642-3.656,3.642H60.21V7.759H64.043z M75.1,1.834
		c1.83,0,3.543,0.404,4.965,1.271v3.816c-0.87-1.127-2.118-1.907-4.122-1.907c-3.951,0-6.388,3.872-6.388,7.891
		c0,3.788,2.555,7.921,6.388,7.921c1.685,0,3.222-0.491,4.122-1.706v3.756c-1.13,0.841-2.902,1.303-4.993,1.303
		c-6.273,0-9.582-5.725-9.582-11.245C65.49,7.5,68.799,1.834,75.1,1.834 M86.941,7.759c0.639,0,1.453,0.059,2.178,0.174v3.092
		c-1.335-0.952-3.107-0.633-3.89-0.229v9.51c0,1.992-1.654,3.642-3.659,3.642h-0.204V9.003C82.878,8.28,84.417,7.759,86.941,7.759
		 M102.591,16.027l-9.668,1.329c0.319,2.631,1.658,4.019,4.095,4.019c2.699,0,4.064-0.867,5.053-1.561v3.207
		c-0.989,0.522-2.817,1.157-5.431,1.157c-4.733,0-7.549-3.179-7.549-8.268c0-4.942,2.613-8.152,6.909-8.152
		c4.241,0,6.591,2.805,6.591,7.661V16.027z M99.223,13.829L99.223,13.829c-0.115-3.209-2.118-3.554-3.194-3.554h-0.145
		c-2.177,0.056-3.192,1.591-3.192,4.452L99.223,13.829z M116.535,2.151v21.592c-0.929,0.204-3.977,0.436-5.255,0.436h-0.264
		c-4.731-0.058-7.316-2.775-7.316-7.661c0-4.941,2.699-8.122,6.882-8.122c0.813,0,1.508,0.088,2.12,0.23V5.823
		c0-2.022,1.626-3.672,3.66-3.672H116.535z M112.73,10.881L112.73,10.881c-0.405-0.115-0.842-0.173-1.335-0.173
		c-3.195,0-3.863,3.064-3.863,5.608c0,3.558,1.193,5.318,3.602,5.318c0.406,0,1.306-0.088,1.597-0.145V10.881z M120.264,2.151
		c1.161,0,2.092,0.867,2.092,1.937c0,1.041-0.931,1.879-2.092,1.879c-1.162,0-2.119-0.838-2.119-1.879
		C118.145,3.018,119.102,2.151,120.264,2.151 M122.18,7.759L122.18,7.759v12.547c0,1.992-1.627,3.642-3.658,3.642h-0.173V7.759
		H122.18z M128.969,2.151v5.607h2.497v3.094h-2.497v8.585c0,1.04,0.349,1.358,1.482,1.358c0.289,0,0.726-0.087,1.015-0.203v3.209
		c-0.174,0.058-0.928,0.376-1.943,0.376c-2.847,0-4.414-1.389-4.414-3.904v-9.421h-1.687V7.759h1.687V5.793
		c0-1.993,1.625-3.642,3.629-3.642H128.969z M149.312,12.185v0.088c2.095,0.405,4.977,2.229,4.977,5.416
		c0,4.347-3.493,6.259-8.615,6.259c-4.889,0-6.665-0.087-6.665-0.087V3c1.368-0.696,3.667-1.216,6.402-1.216
		c5.414,0,8.121,2.347,8.121,5.563C153.532,10.331,151.233,11.78,149.312,12.185 M149.515,7.607L149.515,7.607
		c0-2.403-1.396-3.535-4.104-3.535c-0.988,0-1.744,0.118-2.502,0.35v6.893l1.281,0.03C148.176,11.461,149.515,10.243,149.515,7.607
		 M144.19,13.315L144.19,13.315l-1.281,0.029v8.112h2.618c2.678,0,4.599-1.016,4.599-3.823
		C150.125,14.62,148.439,13.199,144.19,13.315 M197.392,13.721v-1.072c0-2.057-1.28-2.609-3.142-2.609
		c-1.544,0-3.086,0.58-4.802,1.478V8.939c1.017-0.491,2.938-1.217,5.441-1.217c3.29,0,6.024,1.651,6.024,5.708v10.313
		c-1.077,0.204-3.581,0.437-5.094,0.437h-0.814c-4.306,0-6.547-1.797-6.547-4.84C188.459,15.169,192.533,14.184,197.392,13.721
		 M197.392,15.515L197.392,15.515c-3.404,0.322-5.471,1.016-5.471,3.712c0,1.997,1.224,2.896,3.317,2.896
		c0.814,0,1.776-0.057,2.153-0.145V15.515z M208.814,7.722c5.445,0,6.317,3.043,6.317,4.867v11.357h-0.174
		c-2.008,0-3.727-1.682-3.727-3.68v-7.62c0-1.071-0.436-2.347-2.562-2.347c-0.989,0-1.571,0.116-2.211,0.348v13.298h-3.9V8.91
		C204.219,8.187,206.895,7.722,208.814,7.722 M220.686,20.18c0,2.085-1.627,3.767-3.811,3.767h-0.03V5.868
		c0-2.086,1.63-3.768,3.813-3.768h0.028v13.154l4.832-7.127h3.638l-4.976,7.242L230,23.946h-4.075l-5.238-8.027V20.18z
		 M169.554,23.943h3.805V2.152h-0.176c-2.031,0-3.658,1.647-3.658,3.671L169.554,23.943z M175.189,23.744
		c0.93,0.203,4.438,0.435,5.716,0.435h0.262c4.731-0.058,7.12-2.775,7.12-7.66c0-4.943-2.438-8.123-6.619-8.123
		c-0.813,0-2.036,0.087-2.646,0.231V5.823V5.815V2.152h-0.175c-2.032,0-3.658,1.647-3.658,3.671V23.744z M179.022,21.655V10.674
		c0.421-0.11,1.35-0.246,1.833-0.246c3.194,0,3.993,3.343,3.993,5.888c0,3.558-1.627,5.559-3.799,5.559
		C180.656,21.875,179.365,21.712,179.022,21.655 M167.772,7.702h-0.173c-2.033,0-3.659,1.648-3.659,3.671l0.007,9.698
		c-0.626,0.233-1.196,0.35-2.168,0.35c-2.082,0-2.51-1.275-2.51-2.347l-0.002-11.372h-0.174c-2.031,0-3.658,1.648-3.658,3.671
		l0.01,6.327h0.001v1.881c0,1.824,1.035,4.687,6.369,4.687c1.883,0,3.942-0.104,5.955-0.501L167.772,7.702z"/>
</g>
</svg>
